<?xml version="1.0" encoding="utf-8"?>
<!-- Generator: Adobe Illustrator 23.0.0, SVG Export Plug-In . SVG Version: 6.00 Build 0)  -->
<svg version="1.1" id="Layer_1" xmlns="http://www.w3.org/2000/svg" xmlns:xlink="http://www.w3.org/1999/xlink" x="0px" y="0px"
	 viewBox="0 0 600 600" style="enable-background:new 0 0 600 600;" xml:space="preserve">
<style type="text/css">
	.st0{fill:#E2E4E7;}
</style>
<path class="st0" d="M582,397.5H402.5v-195H582c1.4,0,2.5-1.1,2.5-2.5s-1.1-2.5-2.5-2.5H402.5V18c0-1.4-1.1-2.5-2.5-2.5
	s-2.5,1.1-2.5,2.5v179.5h-195V18c0-1.4-1.1-2.5-2.5-2.5s-2.5,1.1-2.5,2.5v179.5H18c-1.4,0-2.5,1.1-2.5,2.5s1.1,2.5,2.5,2.5h179.5
	v195H18c-1.4,0-2.5,1.1-2.5,2.5s1.1,2.5,2.5,2.5h179.5V582c0,1.4,1.1,2.5,2.5,2.5s2.5-1.1,2.5-2.5V402.5h195V582
	c0,1.4,1.1,2.5,2.5,2.5s2.5-1.1,2.5-2.5V402.5H582c1.4,0,2.5-1.1,2.5-2.5S583.4,397.5,582,397.5z M202.5,397.5v-195h195v195H202.5z"
	/>
</svg>
